<svg id="Layer_1" data-name="Layer 1" xmlns="http://www.w3.org/2000/svg" viewBox="0 0 93.60872 93.02279"><defs><style>.cls-1{fill:#e9500e;}.cls-2{fill:#fff;}</style></defs><rect class="cls-1" width="93.60872" height="93.02279"/><path class="cls-2" d="M70.85959,61.80667H42.74616a.30244.30244,0,0,0-.30243.30575l.04561,4.58245a.30264.30264,0,0,0,.30243.29949H65.49925v4.741h-27.666v-57.612a.3025.3025,0,0,0-.30243-.30243H22.7672a.3025.3025,0,0,0-.30243.30243V76.5989a.30255.30255,0,0,0,.30243.30263h4.78935a.30276.30276,0,0,0,.30243-.303l-.06029-57.797,4.88174-.054L32.505,76.34482a.3031.3031,0,0,0,.30243.30341H70.85959a.30254.30254,0,0,0,.30243-.30262V62.10929A.30254.30254,0,0,0,70.85959,61.80667Z" transform="translate(-0.00903)"/><script xmlns=""/><script xmlns="" id="bw-fido2-page-script"/></svg>